<svg xmlns="http://www.w3.org/2000/svg" width="612.043" height="612.043" viewBox="0 0 612.043 612.043"><path d="M397.503 306.01L593.08 110.435c25.27-25.27 25.27-66.213 0-91.482-25.27-25.27-66.213-25.27-91.48 0l-195.578 195.6L110.445 18.973c-25.27-25.27-66.213-25.27-91.482 0s-25.27 66.213 0 91.482L214.54 306.033 18.963 501.61c-25.27 25.27-25.27 66.213 0 91.48 25.27 25.27 66.213 25.27 91.482 0l195.577-195.575L501.6 593.09c25.268 25.27 66.212 25.27 91.48 0 25.27-25.268 25.27-66.212 0-91.48l-195.577-195.6z"/></svg>